<?xml version="1.0" encoding="utf-8"?>
<!-- Generator: Adobe Illustrator 15.0.0, SVG Export Plug-In . SVG Version: 6.00 Build 0)  -->
<!DOCTYPE svg PUBLIC "-//W3C//DTD SVG 1.1//EN" "http://www.w3.org/Graphics/SVG/1.1/DTD/svg11.dtd">
<svg version="1.1" id="Layer_1" xmlns="http://www.w3.org/2000/svg" xmlns:xlink="http://www.w3.org/1999/xlink" x="0px" y="0px"
	 width="150px" height="50px" viewBox="0 0 150 50" enable-background="new 0 0 150 50" xml:space="preserve">
<g>
	<path fill="#FFFFFF" d="M50.578,33.118h0.602v3.575c0,0.322-0.043,0.602-0.118,0.838c-0.086,0.234-0.205,0.429-0.354,0.58
		c-0.15,0.148-0.343,0.258-0.559,0.332c-0.214,0.063-0.451,0.106-0.708,0.106c-0.623,0-1.084-0.149-1.396-0.43
		c-0.322-0.289-0.472-0.72-0.472-1.3v-3.703h0.623v3.402c0,0.27,0.021,0.496,0.075,0.688c0.054,0.183,0.129,0.333,0.236,0.451
		c0.107,0.106,0.236,0.192,0.397,0.247c0.15,0.053,0.333,0.074,0.547,0.074c0.397,0,0.687-0.119,0.869-0.344
		c0.172-0.226,0.258-0.602,0.258-1.117V33.118z"/>
	<path fill="#FFFFFF" d="M55.367,38.477v-2.18c0-0.398-0.065-0.697-0.172-0.902c-0.119-0.203-0.323-0.301-0.623-0.301
		c-0.258,0-0.483,0.075-0.655,0.215c-0.172,0.149-0.291,0.332-0.365,0.549v2.619h-0.601v-3.822h0.429l0.108,0.462h0.032
		c0.117-0.16,0.279-0.29,0.483-0.397c0.204-0.105,0.439-0.16,0.719-0.16c0.204,0,0.387,0.021,0.537,0.074
		c0.16,0.043,0.291,0.131,0.387,0.26c0.107,0.116,0.183,0.289,0.236,0.492c0.054,0.205,0.075,0.463,0.075,0.783v2.309H55.367
		L55.367,38.477z"/>
	<path fill="#FFFFFF" d="M57.738,34.652h0.602v3.822h-0.602V34.652z M57.621,33.482c0-0.116,0.032-0.213,0.107-0.299
		c0.086-0.086,0.183-0.129,0.301-0.129c0.118,0,0.225,0.043,0.311,0.129s0.118,0.183,0.118,0.299c0,0.119-0.032,0.215-0.118,0.291
		c-0.086,0.074-0.193,0.119-0.311,0.119c-0.119,0-0.215-0.045-0.301-0.119C57.652,33.697,57.621,33.602,57.621,33.482z"/>
	<polygon fill="#FFFFFF" points="61.26,36.896 61.475,37.617 61.485,37.617 61.668,36.876 62.505,34.652 63.15,34.652 
		61.561,38.563 61.303,38.563 59.682,34.652 60.369,34.652 	"/>
	<path fill="#FFFFFF" d="M65.726,35.094c-0.301,0-0.537,0.075-0.708,0.236c-0.183,0.162-0.291,0.432-0.322,0.816h1.858
		c0-0.387-0.065-0.666-0.216-0.816C66.199,35.169,65.983,35.094,65.726,35.094z M67.015,38.176
		c-0.151,0.117-0.344,0.215-0.569,0.289c-0.226,0.076-0.462,0.107-0.719,0.107c-0.291,0-0.537-0.055-0.741-0.141
		c-0.214-0.097-0.386-0.234-0.515-0.406c-0.14-0.184-0.236-0.387-0.301-0.635c-0.065-0.246-0.097-0.516-0.097-0.826
		c0-0.655,0.14-1.148,0.419-1.492c0.29-0.344,0.697-0.516,1.223-0.516c0.172,0,0.344,0.021,0.516,0.055
		c0.162,0.041,0.323,0.117,0.451,0.225c0.141,0.107,0.248,0.258,0.333,0.45c0.086,0.206,0.128,0.463,0.128,0.784
		c0,0.162-0.021,0.354-0.042,0.559h-2.416c0,0.227,0.031,0.419,0.076,0.592c0.042,0.182,0.107,0.321,0.203,0.439
		c0.097,0.117,0.226,0.214,0.375,0.279c0.151,0.063,0.333,0.096,0.559,0.096c0.171,0,0.333-0.031,0.504-0.096
		c0.172-0.055,0.301-0.131,0.386-0.217L67.015,38.176z"/>
	<path fill="#FFFFFF" d="M70.418,35.244c-0.151-0.055-0.29-0.086-0.43-0.086c-0.214,0-0.386,0.064-0.516,0.183
		c-0.118,0.117-0.193,0.279-0.225,0.462v2.674h-0.602v-3.822h0.419l0.117,0.462h0.021c0.098-0.173,0.216-0.302,0.344-0.397
		c0.13-0.096,0.301-0.139,0.505-0.139c0.15,0,0.311,0.021,0.493,0.074L70.418,35.244z"/>
	<path fill="#FFFFFF" d="M73.401,37.434c0-0.147-0.042-0.269-0.127-0.354c-0.097-0.086-0.205-0.161-0.333-0.227
		c-0.14-0.054-0.279-0.105-0.44-0.16s-0.3-0.129-0.429-0.215c-0.14-0.074-0.247-0.183-0.333-0.322
		c-0.098-0.129-0.141-0.311-0.141-0.536c0-0.365,0.107-0.634,0.312-0.806c0.205-0.172,0.483-0.258,0.848-0.258
		c0.269,0,0.494,0.021,0.677,0.074c0.183,0.043,0.343,0.107,0.482,0.174l-0.151,0.504c-0.107-0.055-0.247-0.107-0.407-0.15
		c-0.162-0.043-0.344-0.064-0.526-0.064c-0.215,0-0.375,0.045-0.483,0.118c-0.097,0.074-0.15,0.204-0.15,0.397
		c0,0.129,0.042,0.236,0.128,0.312c0.096,0.074,0.204,0.14,0.333,0.192c0.139,0.064,0.279,0.119,0.44,0.172
		c0.162,0.064,0.3,0.13,0.43,0.227c0.138,0.096,0.246,0.203,0.332,0.344c0.097,0.149,0.14,0.332,0.14,0.559
		c0,0.161-0.021,0.322-0.076,0.461c-0.053,0.141-0.139,0.27-0.246,0.365c-0.108,0.107-0.247,0.183-0.408,0.246
		c-0.162,0.056-0.354,0.086-0.569,0.086c-0.291,0-0.526-0.03-0.731-0.086c-0.203-0.053-0.365-0.116-0.503-0.202l0.183-0.517
		c0.118,0.064,0.269,0.129,0.451,0.183c0.183,0.055,0.365,0.086,0.558,0.086c0.215,0,0.397-0.043,0.537-0.128
		C73.338,37.82,73.401,37.66,73.401,37.434z"/>
	<path fill="#FFFFFF" d="M75.604,34.652h0.602v3.822h-0.602V34.652z M75.474,33.482c0-0.116,0.033-0.213,0.119-0.299
		c0.074-0.086,0.173-0.129,0.289-0.129c0.118,0,0.226,0.043,0.312,0.129s0.129,0.183,0.129,0.299c0,0.119-0.043,0.215-0.129,0.291
		c-0.086,0.074-0.192,0.119-0.312,0.119c-0.116,0-0.215-0.045-0.289-0.119C75.507,33.697,75.474,33.602,75.474,33.482z"/>
	<path fill="#FFFFFF" d="M79.402,38.035c0.259,0,0.463-0.064,0.611-0.203c0.151-0.141,0.248-0.344,0.303-0.611v-1.9
		c-0.088-0.076-0.184-0.131-0.303-0.162c-0.117-0.021-0.268-0.043-0.461-0.043c-0.344,0-0.611,0.119-0.806,0.354
		c-0.192,0.227-0.289,0.602-0.289,1.106c0,0.214,0.011,0.405,0.042,0.589c0.033,0.172,0.086,0.334,0.161,0.452
		c0.075,0.129,0.173,0.235,0.302,0.312C79.082,37.992,79.23,38.035,79.402,38.035z M80.917,37.165l0.011,0.709
		c0,0.204,0.033,0.419,0.064,0.623h-0.396l-0.15-0.548h-0.031c-0.107,0.183-0.247,0.322-0.439,0.439
		c-0.183,0.117-0.408,0.184-0.666,0.184c-0.494,0-0.869-0.161-1.105-0.482c-0.247-0.322-0.365-0.826-0.365-1.514
		c0-0.645,0.15-1.148,0.451-1.482c0.3-0.344,0.72-0.515,1.246-0.515c0.182,0,0.332,0.01,0.439,0.032
		c0.106,0.021,0.225,0.054,0.344,0.097v-1.59h0.601v4.047H80.917z"/>
	<path fill="#FFFFFF" d="M83.645,38.004c0.14,0,0.258-0.021,0.375-0.055c0.107-0.042,0.205-0.086,0.279-0.149
		c0.075-0.054,0.151-0.118,0.203-0.194c0.044-0.073,0.086-0.139,0.107-0.203V36.77l-0.215-0.021h-0.203
		c-0.162,0-0.312,0.011-0.461,0.031c-0.142,0.011-0.27,0.043-0.388,0.097c-0.108,0.043-0.204,0.118-0.269,0.192
		c-0.063,0.086-0.098,0.193-0.098,0.322c0,0.184,0.055,0.322,0.183,0.44C83.29,37.949,83.439,38.004,83.645,38.004z M82.582,34.934
		c0.182-0.119,0.406-0.205,0.652-0.259c0.26-0.053,0.518-0.086,0.795-0.086c0.259,0,0.473,0.033,0.623,0.108
		c0.162,0.074,0.279,0.16,0.365,0.279c0.075,0.117,0.129,0.234,0.162,0.375c0.03,0.141,0.043,0.278,0.043,0.418
		c0,0.301-0.013,0.603-0.022,0.893c-0.021,0.289-0.021,0.568-0.021,0.826c0,0.191,0,0.375,0.021,0.537
		c0.011,0.172,0.044,0.32,0.075,0.472h-0.439l-0.15-0.537h-0.043c-0.043,0.065-0.097,0.142-0.172,0.204
		c-0.063,0.074-0.14,0.141-0.236,0.193c-0.096,0.054-0.203,0.098-0.332,0.129s-0.269,0.055-0.43,0.055
		c-0.16,0-0.301-0.021-0.439-0.076c-0.141-0.054-0.258-0.129-0.354-0.215c-0.107-0.096-0.184-0.215-0.236-0.344
		c-0.064-0.141-0.086-0.289-0.086-0.45c0-0.226,0.043-0.419,0.129-0.569c0.098-0.15,0.215-0.269,0.375-0.354
		c0.173-0.098,0.365-0.15,0.592-0.193c0.225-0.042,0.473-0.054,0.751-0.054h0.204l0.203,0.012c0.021-0.149,0.021-0.29,0.021-0.407
		c0-0.291-0.054-0.482-0.16-0.592c-0.106-0.117-0.313-0.172-0.603-0.172c-0.086,0-0.172,0-0.269,0.021l-0.301,0.054
		c-0.107,0.022-0.203,0.054-0.289,0.085c-0.098,0.033-0.183,0.076-0.248,0.119L82.582,34.934z"/>
	<path fill="#FFFFFF" d="M88.282,38.035c0.245,0,0.45-0.064,0.601-0.203c0.15-0.141,0.258-0.344,0.313-0.611v-1.9
		c-0.096-0.076-0.192-0.131-0.313-0.162c-0.117-0.021-0.27-0.043-0.451-0.043c-0.343,0-0.623,0.119-0.814,0.354
		c-0.193,0.227-0.289,0.602-0.289,1.106c0,0.214,0.021,0.405,0.053,0.589c0.033,0.172,0.086,0.334,0.161,0.452
		c0.075,0.129,0.172,0.235,0.29,0.312C87.96,37.992,88.1,38.035,88.282,38.035z M89.796,37.165v0.709
		c0.013,0.204,0.032,0.419,0.074,0.623h-0.407l-0.15-0.548h-0.03c-0.097,0.183-0.248,0.322-0.431,0.439
		c-0.192,0.117-0.42,0.184-0.666,0.184c-0.504,0-0.869-0.161-1.117-0.482c-0.246-0.322-0.363-0.826-0.363-1.514
		c0-0.645,0.15-1.148,0.449-1.482c0.302-0.344,0.721-0.515,1.258-0.515c0.182,0,0.322,0.01,0.43,0.032
		c0.106,0.021,0.225,0.054,0.354,0.097v-1.59h0.602L89.796,37.165L89.796,37.165z"/>
	<path fill="#FFFFFF" d="M92.952,35.094c-0.29,0-0.526,0.075-0.708,0.236c-0.172,0.162-0.279,0.432-0.313,0.816h1.856
		c0-0.387-0.075-0.666-0.226-0.816C93.424,35.169,93.221,35.094,92.952,35.094z M94.24,38.176c-0.15,0.117-0.333,0.215-0.559,0.289
		c-0.236,0.076-0.473,0.107-0.729,0.107c-0.278,0-0.526-0.055-0.741-0.141c-0.204-0.097-0.387-0.234-0.516-0.406
		c-0.141-0.184-0.235-0.387-0.301-0.635c-0.063-0.246-0.098-0.516-0.098-0.826c0-0.655,0.141-1.148,0.43-1.492
		c0.279-0.344,0.688-0.516,1.226-0.516c0.161,0,0.333,0.021,0.505,0.055c0.171,0.041,0.32,0.117,0.461,0.225
		c0.129,0.107,0.236,0.258,0.322,0.45c0.086,0.206,0.13,0.463,0.13,0.784c0,0.162-0.013,0.354-0.044,0.559h-2.405
		c0,0.227,0.022,0.419,0.065,0.592c0.043,0.182,0.117,0.321,0.215,0.439c0.096,0.117,0.215,0.214,0.363,0.279
		c0.15,0.063,0.344,0.096,0.56,0.096c0.172,0,0.343-0.031,0.517-0.096c0.172-0.055,0.289-0.131,0.375-0.217L94.24,38.176z"/>
	<path fill="#FFFFFF" d="M99.029,36.445h1.535l-0.58-1.631l-0.194-0.815l0,0l-0.192,0.826L99.029,36.445z M100.746,36.994h-1.922
		l-0.516,1.48h-0.621l1.984-5.443h0.279l1.996,5.443h-0.665L100.746,36.994z"/>
	<path fill="#FFFFFF" d="M104.688,35.094c-0.248,0-0.451,0.075-0.603,0.215c-0.161,0.141-0.269,0.344-0.343,0.602v1.934
		c0.096,0.055,0.215,0.098,0.343,0.129c0.14,0.021,0.278,0.043,0.419,0.043c0.344,0,0.612-0.129,0.814-0.365
		c0.205-0.246,0.302-0.633,0.302-1.147c0-0.204-0.011-0.388-0.043-0.569c-0.043-0.17-0.097-0.312-0.173-0.438
		c-0.074-0.12-0.172-0.216-0.288-0.291C104.998,35.126,104.857,35.094,104.688,35.094z M103.141,33.118h0.603v1.911h0.032
		c0.117-0.149,0.258-0.268,0.439-0.354c0.172-0.073,0.364-0.118,0.578-0.118c0.482,0,0.85,0.161,1.096,0.473
		c0.236,0.322,0.354,0.807,0.354,1.473c0,0.676-0.16,1.18-0.472,1.523c-0.322,0.354-0.772,0.525-1.354,0.525
		c-0.279,0-0.537-0.031-0.762-0.096c-0.227-0.064-0.397-0.13-0.516-0.193V33.118L103.141,33.118z"/>
	<path fill="#FFFFFF" d="M109.193,35.094c-0.289,0-0.524,0.075-0.707,0.236c-0.172,0.162-0.279,0.432-0.312,0.816h1.857
		c0-0.387-0.075-0.666-0.216-0.816C109.668,35.169,109.463,35.094,109.193,35.094z M110.484,38.176
		c-0.151,0.117-0.334,0.215-0.56,0.289c-0.226,0.076-0.474,0.107-0.731,0.107c-0.277,0-0.524-0.055-0.739-0.141
		c-0.203-0.097-0.375-0.234-0.517-0.406c-0.127-0.184-0.233-0.387-0.299-0.635c-0.064-0.246-0.098-0.516-0.098-0.826
		c0-0.655,0.141-1.148,0.43-1.492c0.279-0.344,0.688-0.516,1.223-0.516c0.162,0,0.334,0.021,0.507,0.055
		c0.172,0.041,0.321,0.117,0.461,0.225c0.129,0.107,0.247,0.258,0.323,0.45c0.086,0.206,0.127,0.463,0.127,0.784
		c0,0.162-0.01,0.354-0.041,0.559h-2.405c0,0.227,0.021,0.419,0.063,0.592c0.054,0.182,0.119,0.321,0.215,0.439
		c0.097,0.117,0.215,0.214,0.365,0.279c0.162,0.063,0.344,0.096,0.558,0.096c0.172,0,0.344-0.031,0.517-0.096
		c0.172-0.055,0.301-0.131,0.387-0.217L110.484,38.176z"/>
	<path fill="#FFFFFF" d="M113.889,35.244c-0.152-0.055-0.291-0.086-0.421-0.086c-0.214,0-0.386,0.064-0.516,0.183
		c-0.128,0.117-0.203,0.279-0.235,0.462v2.674h-0.591v-3.822h0.419l0.107,0.462h0.031c0.098-0.173,0.205-0.302,0.344-0.397
		c0.13-0.096,0.301-0.139,0.506-0.139c0.139,0,0.3,0.021,0.482,0.074L113.889,35.244z"/>
	<path fill="#FFFFFF" d="M114.961,34.652h0.59v-0.76l0.592-0.174v0.934h1.02v0.537h-1.02v2.115c0,0.27,0.03,0.451,0.096,0.568
		c0.064,0.107,0.183,0.161,0.334,0.161c0.128,0,0.236-0.011,0.332-0.043l0.301-0.106l0.128,0.461
		c-0.128,0.064-0.278,0.118-0.438,0.16c-0.162,0.044-0.332,0.064-0.516,0.064c-0.302,0-0.516-0.086-0.645-0.268
		c-0.129-0.173-0.184-0.473-0.184-0.882v-2.231h-0.59V34.652z"/>
	<path fill="#FFFFFF" d="M119.564,38.004c0.142,0,0.259-0.021,0.377-0.055c0.107-0.042,0.205-0.086,0.279-0.149
		c0.086-0.054,0.149-0.118,0.203-0.194c0.055-0.073,0.086-0.139,0.107-0.203V36.77l-0.203-0.021h-0.215
		c-0.162,0-0.313,0.011-0.463,0.031c-0.139,0.011-0.27,0.043-0.387,0.097c-0.105,0.043-0.203,0.118-0.269,0.192
		c-0.063,0.086-0.097,0.193-0.097,0.322c0,0.184,0.054,0.322,0.183,0.44C119.211,37.949,119.373,38.004,119.564,38.004z
		 M118.504,34.934c0.182-0.119,0.407-0.205,0.655-0.259c0.257-0.053,0.515-0.086,0.793-0.086c0.258,0,0.473,0.033,0.623,0.108
		c0.159,0.074,0.28,0.16,0.366,0.279c0.074,0.117,0.138,0.234,0.16,0.375c0.031,0.141,0.043,0.278,0.043,0.418
		c0,0.301-0.012,0.603-0.021,0.893c-0.021,0.289-0.021,0.568-0.021,0.826c0,0.191,0,0.375,0.021,0.537
		c0.011,0.172,0.042,0.32,0.086,0.472h-0.451l-0.15-0.537h-0.043c-0.043,0.065-0.098,0.142-0.172,0.204
		c-0.063,0.074-0.14,0.141-0.234,0.193c-0.098,0.054-0.205,0.098-0.334,0.129s-0.27,0.055-0.43,0.055s-0.301-0.021-0.439-0.076
		c-0.139-0.054-0.258-0.129-0.354-0.215c-0.107-0.096-0.183-0.215-0.235-0.344c-0.065-0.141-0.087-0.289-0.087-0.45
		c0-0.226,0.043-0.419,0.129-0.569c0.098-0.15,0.216-0.269,0.376-0.354c0.172-0.098,0.364-0.15,0.591-0.193
		c0.227-0.042,0.473-0.054,0.751-0.054h0.205l0.203,0.012c0.021-0.149,0.032-0.29,0.032-0.407c0-0.291-0.063-0.482-0.172-0.592
		c-0.107-0.117-0.313-0.172-0.602-0.172c-0.086,0-0.172,0-0.27,0.021l-0.301,0.054c-0.107,0.022-0.203,0.054-0.289,0.085
		c-0.098,0.033-0.172,0.076-0.248,0.119L118.504,34.934z"/>
	<path fill="#FFFFFF" d="M126.76,38.035c0.258,0,0.461-0.064,0.611-0.203c0.148-0.141,0.246-0.344,0.313-0.611v-1.9
		c-0.098-0.076-0.193-0.131-0.313-0.162c-0.118-0.021-0.27-0.043-0.463-0.043c-0.344,0-0.61,0.119-0.805,0.354
		c-0.193,0.227-0.289,0.602-0.289,1.106c0,0.214,0.01,0.405,0.043,0.589c0.031,0.172,0.086,0.334,0.16,0.452
		c0.074,0.129,0.184,0.235,0.301,0.312C126.438,37.992,126.588,38.035,126.76,38.035z M128.271,37.165l0.013,0.709
		c0.011,0.204,0.03,0.419,0.063,0.623h-0.396l-0.151-0.548h-0.03c-0.098,0.183-0.248,0.322-0.44,0.439
		c-0.183,0.117-0.408,0.184-0.666,0.184c-0.494,0-0.869-0.161-1.104-0.482c-0.248-0.322-0.365-0.826-0.365-1.514
		c0-0.645,0.15-1.148,0.451-1.482c0.301-0.344,0.719-0.515,1.244-0.515c0.193,0,0.334,0.01,0.44,0.032
		c0.106,0.021,0.226,0.054,0.354,0.097v-1.59h0.59v4.047H128.271z"/>
	<path fill="#FFFFFF" d="M130.409,36.564c0,0.193,0.011,0.375,0.054,0.559c0.032,0.184,0.098,0.333,0.172,0.473
		c0.086,0.129,0.184,0.236,0.322,0.322c0.129,0.074,0.279,0.117,0.473,0.117c0.676,0,1.008-0.482,1.008-1.471
		c0-0.205-0.01-0.387-0.053-0.569c-0.033-0.173-0.097-0.332-0.171-0.461c-0.086-0.14-0.185-0.248-0.313-0.322
		c-0.139-0.073-0.289-0.118-0.471-0.118C130.741,35.094,130.409,35.577,130.409,36.564z M129.786,36.564
		c0-0.645,0.14-1.148,0.419-1.492c0.277-0.344,0.688-0.516,1.225-0.516c0.278,0,0.516,0.043,0.729,0.141
		c0.202,0.097,0.375,0.236,0.505,0.406c0.139,0.183,0.234,0.389,0.3,0.635s0.097,0.525,0.097,0.826c0,0.645-0.14,1.148-0.418,1.492
		c-0.279,0.344-0.687,0.516-1.213,0.516c-0.279,0-0.525-0.055-0.729-0.141c-0.217-0.097-0.389-0.234-0.518-0.406
		c-0.139-0.184-0.235-0.387-0.301-0.635C129.818,37.145,129.786,36.865,129.786,36.564z"/>
	<path fill="#FFFFFF" d="M139.566,37.113c0-0.217-0.064-0.389-0.192-0.526c-0.13-0.129-0.278-0.248-0.474-0.354
		c-0.184-0.106-0.387-0.203-0.601-0.301c-0.228-0.086-0.43-0.193-0.612-0.332c-0.192-0.129-0.344-0.291-0.473-0.474
		c-0.129-0.192-0.183-0.438-0.183-0.741c0-0.418,0.14-0.751,0.418-0.986c0.291-0.248,0.698-0.377,1.215-0.377
		c0.31,0,0.589,0.033,0.836,0.076c0.248,0.043,0.44,0.106,0.58,0.172l-0.183,0.568c-0.119-0.054-0.278-0.117-0.504-0.162
		c-0.227-0.052-0.473-0.085-0.752-0.085c-0.332,0-0.58,0.075-0.742,0.226c-0.172,0.15-0.246,0.334-0.246,0.537
		c0,0.192,0.054,0.365,0.184,0.494c0.129,0.139,0.279,0.258,0.473,0.354c0.184,0.106,0.387,0.215,0.612,0.312
		c0.214,0.107,0.417,0.227,0.601,0.354c0.192,0.14,0.344,0.3,0.474,0.493c0.128,0.184,0.192,0.418,0.192,0.697
		c0,0.236-0.045,0.44-0.131,0.623c-0.074,0.182-0.191,0.344-0.343,0.473c-0.159,0.14-0.343,0.236-0.569,0.312
		c-0.213,0.076-0.472,0.106-0.75,0.106c-0.377,0-0.678-0.03-0.924-0.086c-0.246-0.063-0.439-0.127-0.568-0.202l0.203-0.56
		c0.119,0.063,0.291,0.129,0.516,0.184c0.227,0.063,0.475,0.097,0.752,0.097c0.172,0,0.322-0.012,0.473-0.055
		c0.139-0.031,0.27-0.087,0.365-0.149c0.105-0.076,0.193-0.172,0.258-0.291C139.535,37.402,139.566,37.273,139.566,37.113z"/>
	<path fill="#FFFFFF" d="M144.753,33.118h0.59v3.575c0,0.322-0.032,0.602-0.118,0.838c-0.086,0.234-0.203,0.429-0.354,0.58
		c-0.15,0.148-0.332,0.258-0.547,0.332c-0.215,0.063-0.451,0.106-0.721,0.106c-0.611,0-1.084-0.149-1.396-0.43
		c-0.312-0.289-0.472-0.72-0.472-1.3v-3.703h0.623v3.402c0,0.27,0.021,0.496,0.074,0.688c0.055,0.183,0.129,0.333,0.236,0.451
		c0.107,0.106,0.234,0.192,0.396,0.247c0.162,0.053,0.345,0.074,0.547,0.074c0.41,0,0.699-0.119,0.871-0.344
		c0.172-0.226,0.269-0.602,0.269-1.117V33.118L144.753,33.118z"/>
	<path fill="#FFFFFF" d="M149.553,37.113c0-0.217-0.064-0.389-0.195-0.526c-0.116-0.129-0.278-0.248-0.461-0.354
		c-0.192-0.106-0.396-0.203-0.611-0.301c-0.215-0.086-0.419-0.193-0.611-0.332c-0.183-0.129-0.344-0.291-0.474-0.474
		c-0.117-0.192-0.183-0.438-0.183-0.741c0-0.418,0.142-0.751,0.43-0.986c0.279-0.248,0.688-0.377,1.214-0.377
		c0.301,0,0.58,0.033,0.827,0.076c0.257,0.043,0.451,0.106,0.589,0.172l-0.192,0.568c-0.107-0.054-0.279-0.117-0.505-0.162
		c-0.215-0.052-0.474-0.085-0.751-0.085c-0.333,0-0.579,0.075-0.74,0.226c-0.162,0.15-0.248,0.334-0.248,0.537
		c0,0.192,0.065,0.365,0.184,0.494c0.129,0.139,0.289,0.258,0.473,0.354c0.184,0.106,0.389,0.215,0.611,0.312
		c0.216,0.107,0.42,0.227,0.611,0.354c0.184,0.14,0.344,0.3,0.463,0.493c0.129,0.184,0.192,0.418,0.192,0.697
		c0,0.236-0.043,0.44-0.118,0.623c-0.086,0.182-0.203,0.344-0.354,0.473c-0.148,0.14-0.344,0.236-0.559,0.312
		c-0.227,0.076-0.473,0.106-0.752,0.106c-0.375,0-0.687-0.03-0.934-0.086c-0.248-0.063-0.432-0.127-0.568-0.202l0.215-0.56
		c0.105,0.063,0.277,0.129,0.504,0.184c0.226,0.063,0.482,0.097,0.763,0.097c0.161,0,0.313-0.012,0.462-0.055
		c0.141-0.031,0.27-0.087,0.375-0.149c0.107-0.076,0.184-0.172,0.247-0.291C149.52,37.402,149.553,37.273,149.553,37.113z"/>
</g>
<g>
	<path fill="#FFFFFF" d="M49.053,10.305c2.362,0,2.33,2.384,2.33,2.384v8.47c0,1.942,0.151,4.391,3.79,4.391
		c0.611,0,2.416-0.032,3.381-1.557c0.366-0.547,0.559-1.235,0.559-3.039v-8.32c0-2.394,2.362-2.33,2.362-2.33h1.277v11.123
		c0,5.303-4.123,7-7.643,7c-1.74,0-4.928-0.389-6.571-3.083c-0.848-1.352-0.891-2.736-0.891-4.391v-10.65h1.406V10.305z"/>
	<path fill="#FFFFFF" d="M76.419,12.452v10.629l-1.117-2.072l-5.077-9.555c0,0-0.44-1.149-1.955-1.149h-1.375
		c0,0-1.835-0.096-1.835,2.437v15.611h1.503c2.137,0,2.061-2.342,2.061-2.342v-10.36l4.208,7.901l1.985,3.736
		c0,0,0.451,1.139,1.955,1.139h1.373c0,0,1.838,0.098,1.838-2.438V10.38h-1.301C78.684,10.38,76.419,10.305,76.419,12.452z"/>
	<path fill="#FFFFFF" d="M93.296,21.598l-2.448-7.708l-2.619,7.708H93.296z M93.863,12.249c0.613,1.889,5.486,16.179,5.486,16.179
		h-3.822L94.25,24.53h-6.999l-1.319,3.898h-3.629c0,0,5.11-14.322,5.786-16.179c0.418-1.17,1.406-1.696,2.083-1.868
		c0.387-0.097,0.988-0.107,1.428-0.011C92.361,10.542,93.467,11.057,93.863,12.249z"/>
	<path fill="#FFFFFF" d="M104.654,21.47h-4.123c-1.953,0-2.62-3.479-2.62-3.479h4.123C104.074,17.992,104.654,21.47,104.654,21.47z"
		/>
	<path fill="#FFFFFF" d="M143.926,21.653l-3.307-0.988c-2.125-0.698-3.586-2.78-3.586-5.056c0-2.975,2.33-5.335,5.238-5.335h6.506
		v2.361h-4.563c-0.881,0-1.654,0.698-1.654,1.686c0,0.602,0.398,1.289,1.073,1.493l3.2,1.084c2.232,0.697,3.393,2.973,3.393,5.55
		c0,3.275-2.619,5.958-5.817,5.958h-6.882v-2.684h5.914c0.871,0,1.838-0.892,1.838-2.083
		C145.279,22.748,144.795,21.953,143.926,21.653z"/>
	<path fill="#FFFFFF" d="M127.758,28.438c-3.876,0-6.902-2.803-6.902-6.28V10.305h5.195v12.336c0,1.545,1.32,2.801,3.027,2.801
		c1.6,0,3.016-1.256,3.016-2.801V10.305h2.461v11.853C134.555,25.637,131.536,28.438,127.758,28.438z"/>
	<path fill="#FFFFFF" d="M112.298,21.685l-3.296-0.988c-2.039-0.697-3.488-2.78-3.488-5.056c0-2.974,2.328-5.336,5.239-5.336h6.493
		v2.362h-4.563c-0.869,0-1.643,0.697-1.643,1.685c0,0.602,0.387,1.29,1.063,1.482l3.211,1.095c2.137,0.698,3.295,2.974,3.295,5.55
		c0,3.275-2.522,5.949-5.732,5.949h-6.882v-2.674h5.916c0.88,0,1.845-0.891,1.845-2.083C113.757,22.78,113.18,21.986,112.298,21.685
		z"/>
</g>
<path fill="#FFFFFF" d="M21.913,46.796C10.383,46.796,1,37.209,1,25.421v-0.344h4.284v0.344c0,9.373,7.461,16.995,16.629,16.995
	s16.63-7.622,16.63-16.995v-0.344h4.283v0.344C42.827,37.209,33.444,46.796,21.913,46.796z"/>
<path fill="#FFFFFF" d="M1.032,22.974V6h0.333C2.6,6,3.566,6.375,4.253,7.105c1.095,1.171,1.042,2.835,1.042,2.9v12.969H1.032z"/>
<path fill="#FFFFFF" d="M38.532,22.974V9.995c0-0.055-0.053-1.719,1.052-2.89C40.261,6.375,41.238,6,42.462,6h0.333l0.011,0.344
	l-0.011,16.63H38.532z"/>
<g>
	<path fill="#FFFFFF" d="M26.186,11.98c0-1.771-1.567-1.568-1.567-1.568h-6.141c0,0-1.105,0-1.105,1.107v7.375h8.814L26.186,11.98
		L26.186,11.98z"/>
	<path fill="#FFFFFF" d="M17.372,35.984c0,1.771,1.557,1.568,1.557,1.568h6.14c0,0,1.117,0,1.117-1.107V29.07h-8.814V35.984z"/>
	<path fill="#FFFFFF" d="M8.515,19.892v5.271c0,3.038,2.416,2.866,2.416,2.866h14.493l-8.191-8.138L8.515,19.892L8.515,19.892z"/>
	<path fill="#FFFFFF" d="M35.107,22.716c0-3.017-2.405-2.845-2.405-2.845h-4.928v0.021h-9.662l3.146,3.114l3.048-3.114l2.813,2.878
		l-3.006,3.061l0.28,0.269l2.77-2.825l0.214,0.225l-2.759,2.822l0.269,0.27l2.458-2.512l0.215,0.225l-2.448,2.513l1.191,1.181
		l8.256-0.011l0.547-0.012L35.107,22.716L35.107,22.716z"/>
</g>
</svg>
